<?xml version="1.0" encoding="UTF-8"?>
<svg xmlns="http://www.w3.org/2000/svg" width="96" height="96" viewBox="0 0 96 96" role="img" aria-label="sniper-death-1">
  <defs>
    <radialGradient id="sniper-death-1-glow" cx="50%" cy="42%" r="60%">
      <stop offset="0" stop-color="#f8fbff" stop-opacity=".96"/>
      <stop offset=".42" stop-color="#9fb7ff" stop-opacity=".9"/>
      <stop offset="1" stop-color="#08131d" stop-opacity=".05"/>
    </radialGradient>
    <linearGradient id="sniper-death-1-shade" x1="24" y1="18" x2="72" y2="82">
      <stop offset="0" stop-color="#ffffff" stop-opacity=".92"/>
      <stop offset=".45" stop-color="#9fb7ff" stop-opacity=".96"/>
      <stop offset="1" stop-color="#07131d" stop-opacity=".9"/>
    </linearGradient>
    <filter id="sniper-death-1-soft" x="-40%" y="-40%" width="180%" height="180%">
      <feGaussianBlur stdDeviation="2.2"/>
    </filter>
  </defs>
  <g opacity="0.7450000000000001" transform="translate(1.5666538192549668 2) rotate(4.5 48 50)">
    <ellipse cx="48" cy="78" rx="20" ry="6" fill="#050a0f" opacity=".28"/>
    
    <ellipse cx="48" cy="52" rx="22" ry="27" fill="#111a37" opacity=".96"/>
    <path d="M48 14 69 52 48 77 27 52Z" fill="url(#sniper-death-1-shade)" stroke="#e6edff" stroke-opacity=".52" stroke-width="1.6"/>
    <path d="M48 14 V2" stroke="#7bd4ff" stroke-width="4" stroke-linecap="round" opacity=".8"/>
    <path d="M37 42 H59" stroke="#111a37" stroke-width="4" stroke-linecap="round" opacity=".58"/>
    <circle cx="42" cy="34" r="2.8" fill="#07131d"/>
    <circle cx="54" cy="34" r="2.8" fill="#07131d"/>
    <path d="M31 55 C22 55 19 66 28 72M65 55 C75 55 77 66 68 72" fill="none" stroke="#9fb7ff" stroke-width="3" stroke-linecap="round" stroke-opacity=".54"/>
    <path d="M48 27.25 41 45.25 49 58 42 77" fill="none" stroke="#9fb7ff" stroke-opacity="0.465" stroke-width="2.2" stroke-linecap="round"/><path d="M59 35.5 70 49.5 61 63 74 79" stroke="#f8fbff" stroke-width="2" stroke-linecap="round" opacity="0.36000000000000004"/>
    
  </g>
</svg>
