<?xml version="1.0" encoding="UTF-8"?>
<svg xmlns="http://www.w3.org/2000/svg" width="96" height="96" viewBox="0 0 96 96" role="img" aria-label="boss-hive-move-6 鬼新娘">
  <defs>
    <radialGradient id="boss-hive-move-6-aura" cx="50%" cy="42%" r="64%">
      <stop offset="0" stop-color="#ffe6ff" stop-opacity=".98"/>
      <stop offset=".38" stop-color="#d45cff" stop-opacity=".86"/>
      <stop offset=".7" stop-color="#ff4d8d" stop-opacity=".66"/>
      <stop offset="1" stop-color="#050712" stop-opacity=".08"/>
    </radialGradient>
    <linearGradient id="boss-hive-move-6-body" x1="19" y1="10" x2="78" y2="86">
      <stop offset="0" stop-color="#ffe6ff"/>
      <stop offset=".38" stop-color="#d45cff"/>
      <stop offset=".68" stop-color="#ff4d8d"/>
      <stop offset="1" stop-color="#1b0826"/>
    </linearGradient>
    <linearGradient id="boss-hive-move-6-mask" x1="30" y1="19" x2="67" y2="72">
      <stop offset="0" stop-color="#ffe6ff"/>
      <stop offset=".56" stop-color="#ff4d8d"/>
      <stop offset="1" stop-color="#1b0826"/>
    </linearGradient>
    <filter id="boss-hive-move-6-soft" x="-45%" y="-45%" width="190%" height="190%">
      <feGaussianBlur stdDeviation="2.5"/>
    </filter>
  </defs>
  <g opacity="1" transform="translate(0 -0.86) scale(1) translate(0 0)">
    <ellipse cx="48" cy="83" rx="31" ry="7" fill="#050a0f" opacity=".3"/>
    <ellipse cx="48" cy="49" rx="40" ry="41" fill="url(#boss-hive-move-6-aura)" opacity=".42" filter="url(#boss-hive-move-6-soft)"/>
    
    <path d="M45.131 27.188 l-0.913 -4.957 l4.608 1.94 Z" fill="#d45cff" opacity=".2"/><path d="M55.759 26.289 l2.263 -4.732 l3.268 3.784 Z" fill="#ff4d8d" opacity=".2"/><path d="M66.455 30.685 l4.969 -3.522 l1.249 4.842 Z" fill="#d45cff" opacity=".2"/><path d="M74.565 40.15 l6.641 -1.58 l-1.031 4.893 Z" fill="#ff4d8d" opacity=".2"/><path d="M77.713 53.139 l6.933 0.69 l-3.096 3.927 Z" fill="#d45cff" opacity=".2"/><path d="M74.439 67.026 l5.784 2.817 l-4.517 2.144 Z" fill="#ff4d8d" opacity=".2"/>
    
    <path d="M28 20 C39 8 58 8 68 20 C62 25 55 28 48 28 C41 28 34 25 28 20Z" fill="#ffe6ff" opacity=".62"/>
    <path d="M21 30 C15 48 19 70 36 82M75 30 C81 48 77 70 60 82" fill="none" stroke="#ff4d8d" stroke-width="4" stroke-linecap="round" opacity="0.584"/>
    <ellipse cx="54.522" cy="26.223" rx="3.8" ry="2.4" fill="#ffe6ff" opacity=".9"/><circle cx="54.522" cy="26.223" r="1.2" fill="#1b0826"/><ellipse cx="64.024" cy="26.501" rx="3.8" ry="2.4" fill="#ffe6ff" opacity=".9"/><circle cx="64.024" cy="26.501" r="1.2" fill="#1b0826"/><ellipse cx="64.579" cy="35.99" rx="3.8" ry="2.4" fill="#ffe6ff" opacity=".9"/><circle cx="64.579" cy="35.99" r="1.2" fill="#1b0826"/><ellipse cx="71" cy="43" rx="3.8" ry="2.4" fill="#ffe6ff" opacity=".9"/><circle cx="71" cy="43" r="1.2" fill="#1b0826"/><ellipse cx="64.579" cy="50.01" rx="3.8" ry="2.4" fill="#ffe6ff" opacity=".9"/><circle cx="64.579" cy="50.01" r="1.2" fill="#1b0826"/><ellipse cx="64.024" cy="59.499" rx="3.8" ry="2.4" fill="#ffe6ff" opacity=".9"/><circle cx="64.024" cy="59.499" r="1.2" fill="#1b0826"/><ellipse cx="54.522" cy="59.777" rx="3.8" ry="2.4" fill="#ffe6ff" opacity=".9"/><circle cx="54.522" cy="59.777" r="1.2" fill="#1b0826"/>
    <path d="M25 36 C25 23 34 14 48 13 C62 14 71 23 71 36 C76 49 70 68 58 78 C53 83 43 83 38 78 C26 68 20 49 25 36Z" fill="url(#boss-hive-move-6-body)" stroke="#ffe6ff" stroke-opacity=".54" stroke-width="1.8"/>
    <path d="M31 34 C34 21 42 18 48 18 C54 18 62 21 65 34 C65 48 59 61 48 66 C37 61 31 48 31 34Z" fill="url(#boss-hive-move-6-mask)" stroke="#ffe6ff" stroke-width="1.6"/>
    <path d="M37 37 C41 34 44 35 46 39" fill="none" stroke="#1b0826" stroke-width="4" stroke-linecap="round"/>
    <path d="M59 37 C55 34 52 35 50 39" fill="none" stroke="#1b0826" stroke-width="4" stroke-linecap="round"/>
    <path d="M39 53 C44 58 52 58 57 53" fill="none" stroke="#1b0826" stroke-width="4" stroke-linecap="round"/>
    <path d="M48 21 L42.88 35 L51.56 48 L44.44 66" fill="none" stroke="#ffe6ff" stroke-width="2.192" stroke-linecap="round" opacity="0.506"/>
    <path d="M23 61 C10 62 8 76 22 81M73 61 C86 62 88 76 74 81" fill="none" stroke="#ff4d8d" stroke-width="4" stroke-linecap="round" opacity=".52"/>
    <g id="boss-hive-move-6-sparks"><circle cx="51.828" cy="25.594" r="1.86" fill="#ff4d8d" opacity="0.4"/><circle cx="80.14" cy="36.108" r="2.24" fill="#d45cff" opacity="0.48"/><circle cx="65.49" cy="62.518" r="1.1" fill="#8ce8bd" opacity="0.56"/><circle cx="42.229" cy="81.78" r="1.48" fill="#ff4d8d" opacity="0.64"/><circle cx="26.682" cy="55.888" r="1.86" fill="#d45cff" opacity="0.32"/><circle cx="21.631" cy="26.112" r="2.24" fill="#8ce8bd" opacity="0.4"/></g>
  </g>
</svg>
