<?xml version="1.0" encoding="UTF-8"?>
<svg xmlns="http://www.w3.org/2000/svg" width="96" height="96" viewBox="0 0 96 96" role="img" aria-label="boss-warden-death-8 百目判官">
  <defs>
    <radialGradient id="boss-warden-death-8-aura" cx="50%" cy="42%" r="64%">
      <stop offset="0" stop-color="#fff7d6" stop-opacity=".98"/>
      <stop offset=".38" stop-color="#ffd166" stop-opacity=".86"/>
      <stop offset=".7" stop-color="#8ce8bd" stop-opacity=".66"/>
      <stop offset="1" stop-color="#050712" stop-opacity=".08"/>
    </radialGradient>
    <linearGradient id="boss-warden-death-8-body" x1="19" y1="10" x2="78" y2="86">
      <stop offset="0" stop-color="#fff7d6"/>
      <stop offset=".38" stop-color="#ffd166"/>
      <stop offset=".68" stop-color="#8ce8bd"/>
      <stop offset="1" stop-color="#20170a"/>
    </linearGradient>
    <linearGradient id="boss-warden-death-8-mask" x1="30" y1="19" x2="67" y2="72">
      <stop offset="0" stop-color="#fff7d6"/>
      <stop offset=".56" stop-color="#8ce8bd"/>
      <stop offset="1" stop-color="#20170a"/>
    </linearGradient>
    <filter id="boss-warden-death-8-soft" x="-45%" y="-45%" width="190%" height="190%">
      <feGaussianBlur stdDeviation="2.5"/>
    </filter>
  </defs>
  <g opacity="0.449" transform="translate(0 2.667) scale(1.196) translate(-9.387 -10.169)">
    <ellipse cx="48" cy="83" rx="31" ry="7" fill="#050a0f" opacity=".3"/>
    <ellipse cx="48" cy="49" rx="40" ry="41" fill="url(#boss-warden-death-8-aura)" opacity=".42" filter="url(#boss-warden-death-8-soft)"/>
    
    <path d="M61.534 11.832 l2.395 -4.698 l3.192 3.849 Z" fill="#ffd166" opacity="0.636"/><path d="M77.271 21.09 l5.066 -3.45 l1.152 4.866 Z" fill="#8ce8bd" opacity="0.636"/><path d="M87.468 36.722 l6.684 -1.485 l-1.128 4.871 Z" fill="#ffd166" opacity="0.636"/><path d="M89.694 55.66 l6.912 0.789 l-3.173 3.864 Z" fill="#8ce8bd" opacity="0.636"/><path d="M83.127 73.993 l5.704 2.899 l-4.559 2.053 Z" fill="#ffd166" opacity="0.636"/><path d="M68.8 87.773 l3.309 4.406 l-4.997 -0.184 Z" fill="#8ce8bd" opacity="0.636"/><path d="M49.454 93.865 l0.227 4.997 l-4.396 -2.383 Z" fill="#ffd166" opacity="0.636"/><path d="M29.016 90.656 l-2.903 4.55 l-2.881 -4.087 Z" fill="#8ce8bd" opacity="0.636"/><path d="M11.807 78.459 l-5.429 3.156 l-0.767 -4.941 Z" fill="#ffd166" opacity="0.636"/><path d="M1.624 59.526 l-6.826 1.107 l1.506 -4.768 Z" fill="#8ce8bd" opacity="0.636"/><path d="M0.908 37.635 l-6.805 -1.173 l3.466 -3.603 Z" fill="#ffd166" opacity="0.636"/><path d="M10.167 17.339 l-5.368 -3.209 l4.706 -1.69 Z" fill="#8ce8bd" opacity="0.636"/><path d="M27.798 3.02 l-2.816 -4.578 l4.967 0.575 Z" fill="#ffd166" opacity="0.636"/><path d="M50.351 -2.057 l0.322 -4.995 l4.195 2.72 Z" fill="#8ce8bd" opacity="0.636"/><path d="M73.204 3.517 l3.393 -4.373 l2.552 4.3 Z" fill="#ffd166" opacity="0.636"/><path d="M91.508 18.928 l5.758 -2.843 l0.378 4.986 Z" fill="#8ce8bd" opacity="0.636"/>
    
    <rect x="27" y="18" width="42" height="55" rx="13" fill="#20170a" opacity=".48"/>
    <ellipse cx="31" cy="27" rx="3" ry="2" fill="#fff7d6"/><circle cx="31" cy="27" r="1" fill="#20170a"/><ellipse cx="39.5" cy="27" rx="3" ry="2" fill="#fff7d6"/><circle cx="39.5" cy="27" r="1" fill="#20170a"/><ellipse cx="48" cy="27" rx="3" ry="2" fill="#fff7d6"/><circle cx="48" cy="27" r="1" fill="#20170a"/><ellipse cx="56.5" cy="27" rx="3" ry="2" fill="#fff7d6"/><circle cx="56.5" cy="27" r="1" fill="#20170a"/><ellipse cx="65" cy="27" rx="3" ry="2" fill="#fff7d6"/><circle cx="65" cy="27" r="1" fill="#20170a"/><ellipse cx="31" cy="39" rx="3" ry="2" fill="#fff7d6"/><circle cx="31" cy="39" r="1" fill="#20170a"/><ellipse cx="39.5" cy="39" rx="3" ry="2" fill="#fff7d6"/><circle cx="39.5" cy="39" r="1" fill="#20170a"/><ellipse cx="48" cy="39" rx="3" ry="2" fill="#fff7d6"/><circle cx="48" cy="39" r="1" fill="#20170a"/><ellipse cx="56.5" cy="39" rx="3" ry="2" fill="#fff7d6"/><circle cx="56.5" cy="39" r="1" fill="#20170a"/><ellipse cx="65" cy="39" rx="3" ry="2" fill="#fff7d6"/><circle cx="65" cy="39" r="1" fill="#20170a"/>
    <path d="M22 62 C32 55 64 55 74 62" fill="none" stroke="#8ce8bd" stroke-width="4" stroke-linecap="round" opacity="0.522"/>
    <path d="M48 18 V72M30 45 H66" stroke="#fff7d6" stroke-width="2.5" stroke-linecap="round" opacity=".62"/>
    <path d="M25 36 C25 23 34 14 48 13 C62 14 71 23 71 36 C76 49 70 68 58 78 C53 83 43 83 38 78 C26 68 20 49 25 36Z" fill="url(#boss-warden-death-8-body)" stroke="#fff7d6" stroke-opacity=".54" stroke-width="1.8"/>
    <path d="M31 34 C34 21 42 18 48 18 C54 18 62 21 65 34 C65 48 59 61 48 66 C37 61 31 48 31 34Z" fill="url(#boss-warden-death-8-mask)" stroke="#fff7d6" stroke-width="1.6"/>
    <path d="M37 37 C41 34 44 35 46 39" fill="none" stroke="#20170a" stroke-width="4" stroke-linecap="round"/>
    <path d="M59 37 C55 34 52 35 50 39" fill="none" stroke="#20170a" stroke-width="4" stroke-linecap="round"/>
    <path d="M39 56.556 C44 66.889 52 66.889 57 56.556" fill="none" stroke="#20170a" stroke-width="4" stroke-linecap="round"/>
    <path d="M48 21 L40.258 35 L52.871 48 L43.129 66" fill="none" stroke="#fff7d6" stroke-width="3.11" stroke-linecap="round" opacity="0.756"/>
    <path d="M23 61 C10 62 8 76 22 81M73 61 C86 62 88 76 74 81" fill="none" stroke="#8ce8bd" stroke-width="4" stroke-linecap="round" opacity=".52"/>
    <g id="boss-warden-death-8-sparks"><circle cx="66.506" cy="28.103" r="1.1" fill="#8ce8bd" opacity="0.49"/><circle cx="87.607" cy="27.755" r="1.48" fill="#ffd166" opacity="0.57"/><circle cx="74.966" cy="44.654" r="1.86" fill="#d45cff" opacity="0.25"/><circle cx="91.354" cy="57.95" r="2.24" fill="#8ce8bd" opacity="0.33"/><circle cx="70.808" cy="62.77" r="1.1" fill="#ffd166" opacity="0.41"/><circle cx="74.815" cy="83.489" r="1.48" fill="#d45cff" opacity="0.49"/><circle cx="55.978" cy="73.975" r="1.86" fill="#8ce8bd" opacity="0.57"/><circle cx="45.729" cy="92.423" r="2.24" fill="#ffd166" opacity="0.25"/><circle cx="37.415" cy="73.027" r="1.1" fill="#d45cff" opacity="0.33"/><circle cx="17.706" cy="80.57" r="1.48" fill="#8ce8bd" opacity="0.41"/><circle cx="23.805" cy="60.367" r="1.86" fill="#ffd166" opacity="0.49"/><circle cx="3.858" cy="53.478" r="2.24" fill="#d45cff" opacity="0.57"/><circle cx="21.516" cy="41.921" r="1.1" fill="#8ce8bd" opacity="0.25"/><circle cx="10.664" cy="23.822" r="1.48" fill="#ffd166" opacity="0.33"/><circle cx="31.619" cy="26.32" r="1.86" fill="#d45cff" opacity="0.41"/><circle cx="34.94" cy="5.48" r="2.24" fill="#8ce8bd" opacity="0.49"/><circle cx="49.387" cy="20.862" r="1.1" fill="#ffd166" opacity="0.57"/><circle cx="65.327" cy="7.033" r="1.48" fill="#d45cff" opacity="0.25"/></g>
  </g>
</svg>
