<?xml version="1.0" encoding="UTF-8"?>
<svg xmlns="http://www.w3.org/2000/svg" width="96" height="96" viewBox="0 0 96 96" role="img" aria-label="boss-warden-hit-2 百目判官">
  <defs>
    <radialGradient id="boss-warden-hit-2-aura" cx="50%" cy="42%" r="64%">
      <stop offset="0" stop-color="#fff7d6" stop-opacity=".98"/>
      <stop offset=".38" stop-color="#ffd166" stop-opacity=".86"/>
      <stop offset=".7" stop-color="#8ce8bd" stop-opacity=".66"/>
      <stop offset="1" stop-color="#050712" stop-opacity=".08"/>
    </radialGradient>
    <linearGradient id="boss-warden-hit-2-body" x1="19" y1="10" x2="78" y2="86">
      <stop offset="0" stop-color="#fff7d6"/>
      <stop offset=".38" stop-color="#ffd166"/>
      <stop offset=".68" stop-color="#8ce8bd"/>
      <stop offset="1" stop-color="#20170a"/>
    </linearGradient>
    <linearGradient id="boss-warden-hit-2-mask" x1="30" y1="19" x2="67" y2="72">
      <stop offset="0" stop-color="#fff7d6"/>
      <stop offset=".56" stop-color="#8ce8bd"/>
      <stop offset="1" stop-color="#20170a"/>
    </linearGradient>
    <filter id="boss-warden-hit-2-soft" x="-45%" y="-45%" width="190%" height="190%">
      <feGaussianBlur stdDeviation="2.5"/>
    </filter>
  </defs>
  <g opacity="1" transform="translate(0 0) scale(1) translate(0 0)">
    <ellipse cx="48" cy="83" rx="31" ry="7" fill="#050a0f" opacity=".3"/>
    <ellipse cx="48" cy="49" rx="40" ry="41" fill="url(#boss-warden-hit-2-aura)" opacity=".42" filter="url(#boss-warden-hit-2-soft)"/>
    
    <path d="M24.938 36.994 l-6.209 -2.309 l4.232 -2.663 Z" fill="#ffd166" opacity=".54"/><path d="M31.486 26.388 l-4.129 -4.038 l4.974 -0.507 Z" fill="#8ce8bd" opacity=".54"/><path d="M42.901 19.437 l-1.19 -4.927 l4.682 1.754 Z" fill="#ffd166" opacity=".54"/><path d="M57.126 18.329 l1.996 -4.792 l3.417 3.65 Z" fill="#8ce8bd" opacity=".54"/><path d="M62.983 32.891 l4.767 -3.661 l1.441 4.788 Z" fill="#ffd166" opacity=".54"/><path d="M70.448 40.51 l6.547 -1.769 l-0.834 4.93 Z" fill="#8ce8bd" opacity=".54"/><path d="M73.874 51.554 l6.966 0.491 l-2.936 4.047 Z" fill="#ffd166" opacity=".54"/><path d="M71.747 63.835 l5.937 2.649 l-4.428 2.323 Z" fill="#8ce8bd" opacity=".54"/><path d="M63.742 74.538 l3.673 4.256 l-4.999 0.116 Z" fill="#ffd166" opacity=".54"/><path d="M50.952 80.864 l0.646 4.979 l-4.531 -2.115 Z" fill="#8ce8bd" opacity=".54"/>
    
    <rect x="27" y="18" width="42" height="55" rx="13" fill="#20170a" opacity=".48"/>
    <ellipse cx="31" cy="27" rx="3" ry="2" fill="#fff7d6"/><circle cx="31" cy="27" r="1" fill="#20170a"/><ellipse cx="39.5" cy="27" rx="3" ry="2" fill="#fff7d6"/><circle cx="39.5" cy="27" r="1" fill="#20170a"/><ellipse cx="48" cy="27" rx="3" ry="2" fill="#fff7d6"/><circle cx="48" cy="27" r="1" fill="#20170a"/><ellipse cx="56.5" cy="27" rx="3" ry="2" fill="#fff7d6"/><circle cx="56.5" cy="27" r="1" fill="#20170a"/><ellipse cx="65" cy="27" rx="3" ry="2" fill="#fff7d6"/><circle cx="65" cy="27" r="1" fill="#20170a"/><ellipse cx="31" cy="39" rx="3" ry="2" fill="#fff7d6"/><circle cx="31" cy="39" r="1" fill="#20170a"/><ellipse cx="39.5" cy="39" rx="3" ry="2" fill="#fff7d6"/><circle cx="39.5" cy="39" r="1" fill="#20170a"/><ellipse cx="48" cy="39" rx="3" ry="2" fill="#fff7d6"/><circle cx="48" cy="39" r="1" fill="#20170a"/><ellipse cx="56.5" cy="39" rx="3" ry="2" fill="#fff7d6"/><circle cx="56.5" cy="39" r="1" fill="#20170a"/><ellipse cx="65" cy="39" rx="3" ry="2" fill="#fff7d6"/><circle cx="65" cy="39" r="1" fill="#20170a"/>
    <path d="M22 62 C32 55 64 55 74 62" fill="none" stroke="#8ce8bd" stroke-width="4" stroke-linecap="round" opacity="0.44"/>
    <path d="M48 18 V72M30 45 H66" stroke="#fff7d6" stroke-width="2.5" stroke-linecap="round" opacity=".62"/>
    <path d="M25 36 C25 23 34 14 48 13 C62 14 71 23 71 36 C76 49 70 68 58 78 C53 83 43 83 38 78 C26 68 20 49 25 36Z" fill="url(#boss-warden-hit-2-body)" stroke="#fff7d6" stroke-opacity=".54" stroke-width="1.8"/>
    <path d="M31 34 C34 21 42 18 48 18 C54 18 62 21 65 34 C65 48 59 61 48 66 C37 61 31 48 31 34Z" fill="url(#boss-warden-hit-2-mask)" stroke="#fff7d6" stroke-width="1.6"/>
    <path d="M37 37 C41 34 44 35 46 39" fill="none" stroke="#20170a" stroke-width="4" stroke-linecap="round"/>
    <path d="M59 37 C55 34 52 35 50 39" fill="none" stroke="#20170a" stroke-width="4" stroke-linecap="round"/>
    <path d="M39 53 C44 58 52 58 57 53" fill="none" stroke="#20170a" stroke-width="4" stroke-linecap="round"/>
    <path d="M48 21 L40.56 35 L52.72 48 L43.28 66" fill="none" stroke="#fff7d6" stroke-width="3.004" stroke-linecap="round" opacity="0.727"/>
    <path d="M23 61 C10 62 8 76 22 81M73 61 C86 62 88 76 74 81" fill="none" stroke="#8ce8bd" stroke-width="4" stroke-linecap="round" opacity=".52"/>
    <g id="boss-warden-hit-2-sparks"><circle cx="21.265" cy="30.484" r="1.86" fill="#8ce8bd" opacity="0.48"/><circle cx="40.758" cy="28.904" r="2.24" fill="#ffd166" opacity="0.56"/><circle cx="56.397" cy="17.161" r="1.1" fill="#d45cff" opacity="0.64"/><circle cx="63.924" cy="35.212" r="1.48" fill="#8ce8bd" opacity="0.32"/><circle cx="79.924" cy="46.456" r="1.86" fill="#ffd166" opacity="0.4"/><circle cx="65.083" cy="59.192" r="2.24" fill="#d45cff" opacity="0.48"/><circle cx="59.333" cy="77.885" r="1.1" fill="#8ce8bd" opacity="0.56"/><circle cx="42.634" cy="67.706" r="1.48" fill="#ffd166" opacity="0.64"/><circle cx="23.08" cy="68.014" r="1.86" fill="#d45cff" opacity="0.32"/><circle cx="27.601" cy="48.986" r="2.24" fill="#8ce8bd" opacity="0.4"/></g>
  </g>
</svg>
