<?xml version="1.0" encoding="UTF-8"?>
<svg xmlns="http://www.w3.org/2000/svg" width="96" height="96" viewBox="0 0 96 96" role="img" aria-label="boss-attack-1">
  <defs>
    <radialGradient id="boss-attack-1-aura" cx="50%" cy="42%" r="64%">
      <stop offset="0" stop-color="#fff7e8" stop-opacity=".98"/>
      <stop offset=".34" stop-color="#ff3d6e" stop-opacity=".88"/>
      <stop offset=".68" stop-color="#7b3cff" stop-opacity=".76"/>
      <stop offset="1" stop-color="#050712" stop-opacity=".08"/>
    </radialGradient>
    <linearGradient id="boss-attack-1-body" x1="20" y1="12" x2="78" y2="86">
      <stop offset="0" stop-color="#ffe7b4"/>
      <stop offset=".34" stop-color="#ff5f9e"/>
      <stop offset=".62" stop-color="#7b3cff"/>
      <stop offset="1" stop-color="#12091c"/>
    </linearGradient>
    <linearGradient id="boss-attack-1-mask" x1="29" y1="18" x2="67" y2="72">
      <stop offset="0" stop-color="#fff4cf"/>
      <stop offset=".5" stop-color="#ffb84d"/>
      <stop offset="1" stop-color="#4b0f38"/>
    </linearGradient>
    <filter id="boss-attack-1-soft" x="-45%" y="-45%" width="190%" height="190%">
      <feGaussianBlur stdDeviation="2.5"/>
    </filter>
  </defs>
  <g opacity="1" transform="translate(0 1.046) scale(1.047) translate(-2.257 -2.445)">
    <ellipse cx="48" cy="82" rx="30" ry="7" fill="#050a0f" opacity=".3"/>
    <ellipse cx="48" cy="49" rx="39" ry="40" fill="url(#boss-attack-1-aura)" opacity=".42" filter="url(#boss-attack-1-soft)"/>
    <circle cx="48" cy="48" r="34" fill="none" stroke="#d45cff" stroke-width="2" stroke-dasharray="9 7" opacity="0.38"/>
    
    <path d="M22.942 41.065 l-6.746 -1.334 l3.584 -3.486 Z" fill="#d45cff" opacity="0.2"/><path d="M28.292 28.11 l-4.927 -3.552 l4.843 -1.245 Z" fill="#ffd166" opacity="0.2"/><path d="M40.264 19.014 l-1.805 -4.831 l4.821 1.326 Z" fill="#d45cff" opacity="0.2"/><path d="M56.202 17.069 l1.794 -4.833 l3.525 3.546 Z" fill="#ffd166" opacity="0.2"/><path d="M64.865 30.925 l4.919 -3.557 l1.297 4.829 Z" fill="#d45cff" opacity="0.2"/><path d="M73.047 41.025 l6.743 -1.341 l-1.274 4.835 Z" fill="#ffd166" opacity="0.2"/><path d="M75.141 54.884 l6.785 1.229 l-3.508 3.563 Z" fill="#d45cff" opacity="0.2"/>
    <path d="M32 28 C20 15 18 4 26 3 C33 8 38 17 39 27" fill="#180915" stroke="#ffd166" stroke-width="1.8" transform="scale(1.047 1) translate(-1.505 0)"/><path d="M64 28 C76 15 78 4 70 3 C63 8 58 17 57 27" fill="#180915" stroke="#ffd166" stroke-width="1.8" transform="scale(1.047 1) translate(-3.009 0)"/>
    <path d="M25 36 C25 23 34 15 48 14 C62 15 71 23 71 36 C75 48 70 67 58 77 C53 82 43 82 38 77 C26 67 21 48 25 36Z" fill="url(#boss-attack-1-body)" stroke="#ffe7b4" stroke-opacity=".54" stroke-width="1.8"/>
    <path d="M31 34 C34 21 42 18 48 18 C54 18 62 21 65 34 C65 48 59 61 48 66 C37 61 31 48 31 34Z" fill="url(#boss-attack-1-mask)" stroke="#fff2b3" stroke-width="1.6"/>
    <path d="M37 37 C41 34 44 35 46 39" fill="none" stroke="#160714" stroke-width="4" stroke-linecap="round"/>
    <path d="M59 37 C55 34 52 35 50 39" fill="none" stroke="#160714" stroke-width="4" stroke-linecap="round"/>
    <path d="M39 55.116 C44 63.29 52 63.29 57 55.116" fill="none" stroke="#160714" stroke-width="4" stroke-linecap="round"/>
    <path d="M48 22 L45 34 L50 44 L45 55 L50 66" fill="none" stroke="#fff2b3" stroke-width="2" stroke-linecap="round" opacity="0.4"/>
    <path d="M23 60 C10 61 8 76 22 80M73 60 C86 61 88 76 74 80" fill="none" stroke="#ffb84d" stroke-width="4" stroke-linecap="round" opacity=".52"/>
    <path d="M18 58 C31 31 66 31 79 58" fill="none" stroke="#ff3d6e" stroke-width="5.176" stroke-linecap="round" opacity=".72"/><path d="M25 67 C37 52 60 52 72 67" fill="none" stroke="#ffd166" stroke-width="3" stroke-linecap="round" opacity=".5"/>
    <g id="boss-attack-1-sparks"><circle cx="65.68" cy="58.332" r="1.55" fill="#ffd166" opacity="0.43"/><circle cx="55.349" cy="61.213" r="2" fill="#ffd166" opacity="0.54"/><circle cx="46.446" cy="80.464" r="1.1" fill="#ffd166" opacity="0.65"/><circle cx="32.62" cy="70.994" r="1.55" fill="#ffd166" opacity="0.32"/><circle cx="27.125" cy="57.793" r="2" fill="#ffd166" opacity="0.43"/><circle cx="29.52" cy="46.142" r="1.1" fill="#ffd166" opacity="0.54"/><circle cx="36.634" cy="39.715" r="1.55" fill="#ffd166" opacity="0.65"/><circle cx="33.762" cy="19.463" r="2" fill="#ffd166" opacity="0.32"/><circle cx="49.206" cy="21.028" r="1.1" fill="#ffd166" opacity="0.43"/><circle cx="59.332" cy="29.32" r="1.55" fill="#ffd166" opacity="0.54"/><circle cx="62.213" cy="39.651" r="2" fill="#ffd166" opacity="0.65"/><circle cx="81.464" cy="48.554" r="1.1" fill="#ffd166" opacity="0.32"/></g>
  </g>
</svg>
